<?xml version="1.0" standalone="no"?>
<!DOCTYPE svg PUBLIC "-//W3C//DTD SVG 20010904//EN"
 "http://www.w3.org/TR/2001/REC-SVG-20010904/DTD/svg10.dtd">
<svg version="1.0" xmlns="http://www.w3.org/2000/svg"
 width="370.000000pt" height="369.000000pt" viewBox="0 0 370.000000 369.000000"
 preserveAspectRatio="xMidYMid meet">

<g transform="translate(0.000000,369.000000) scale(0.100000,-0.100000)"
fill="#000000" stroke="none">
<path d="M0 1840 l0 -1840 1850 0 1850 0 0 1840 0 1840 -1850 0 -1850 0 0
-1840z m3250 1820 c0 -5 -5 -10 -11 -10 -5 0 -7 5 -4 10 3 6 8 10 11 10 2 0 4
-4 4 -10z m-1293 -433 c65 -41 162 -98 216 -126 53 -29 97 -55 97 -57 0 -3
-16 -30 -35 -60 -32 -50 -37 -54 -58 -43 -12 6 -24 13 -26 16 -3 2 17 27 45
56 l49 52 -52 -50 -53 -49 -47 23 c-41 19 -209 116 -222 128 -3 2 11 20 30 41
l34 37 -40 -38 c-31 -28 -44 -34 -53 -25 -8 8 -15 8 -25 0 -10 -9 -24 -1 -62
38 -27 27 -46 52 -42 56 17 17 103 73 114 73 6 1 64 -32 130 -72z m-182 -121
c-27 -20 -226 -130 -243 -134 -8 -2 -37 18 -66 45 l-51 48 49 -52 c28 -29 48
-55 45 -58 -15 -14 -281 -135 -289 -130 -4 3 -10 1 -12 -3 -3 -10 -119 -55
-124 -49 -3 2 17 24 43 49 54 50 92 94 61 69 -15 -11 -21 -11 -35 0 -16 13
-17 12 -4 -4 13 -17 9 -23 -40 -73 -49 -49 -63 -57 -122 -70 -49 -12 -67 -20
-67 -32 0 -10 -26 9 -68 51 -37 37 -70 67 -73 67 -3 0 30 -35 73 -78 45 -45
78 -87 78 -98 0 -21 -75 -102 -86 -92 -13 13 -75 215 -79 256 l-4 42 63 0 c37
0 105 11 162 26 55 15 109 27 121 28 11 0 19 4 17 7 -2 3 35 22 83 42 l87 36
-45 -47 c-38 -41 -36 -39 16 9 42 39 101 78 197 127 75 40 158 85 185 102 l47
30 50 -50 c49 -48 50 -50 31 -64z m640 -165 l70 -71 -26 -25 -25 -26 -51 23
c-51 23 -51 23 -57 78 -4 30 -9 68 -12 83 -5 26 -4 28 13 19 10 -6 49 -42 88
-81z m100 -40 l-25 -26 -62 63 -63 62 88 -37 88 -36 -26 -26z m164 -16 c52
-14 122 -25 157 -25 35 0 64 -3 64 -8 0 -4 -37 -43 -81 -87 -45 -44 -79 -72
-76 -63 8 22 -9 31 -84 47 -47 10 -64 20 -109 66 l-54 55 24 25 c17 18 31 24
45 20 11 -3 62 -17 114 -30z m-139 -70 c24 -25 41 -45 37 -45 -8 0 -120 41
-126 46 -5 5 30 44 38 44 4 0 27 -20 51 -45z m340 -72 c-40 -143 -121 -331
-187 -436 -22 -35 -27 -38 -40 -25 -13 13 -10 29 21 131 19 64 38 133 42 154
10 56 13 58 53 21 l36 -33 -37 40 c-21 23 -38 47 -38 54 0 14 161 184 167 177
3 -2 -5 -39 -17 -83z m-1350 47 c0 -5 -4 -10 -10 -10 -5 0 -10 5 -10 10 0 6 5
10 10 10 6 0 10 -4 10 -10z m-76 -91 c-22 -45 -25 -61 -22 -135 3 -72 1 -83
-12 -78 -92 37 -175 -18 -205 -136 l-6 -25 20 23 c10 12 21 22 23 22 1 0 1
-23 -1 -52 -2 -36 2 -62 14 -84 14 -27 15 -38 6 -65 -14 -40 -14 -113 0 -163
l11 -39 20 44 21 44 11 -65 c13 -73 41 -133 87 -185 40 -45 53 -45 46 1 -10
61 3 69 28 17 24 -51 68 -96 126 -131 46 -27 47 -27 51 3 l3 25 45 -36 c86
-68 122 -73 191 -23 49 35 32 5 -20 -34 -55 -43 -61 -43 -119 -17 -23 11 -40
15 -36 9 13 -22 -110 29 -174 71 l-32 22 10 -27 10 -26 -32 22 c-60 42 -160
143 -181 184 l-21 40 -6 -40 -5 -40 -35 85 c-31 77 -35 95 -36 190 -1 85 -5
114 -22 150 -60 127 13 280 134 280 42 0 44 1 44 29 0 38 25 107 56 154 35 53
39 46 8 -14z m-506 -141 c6 -35 27 -109 45 -165 25 -75 31 -105 23 -113 -8 -8
-7 -10 4 -6 11 4 22 -12 42 -60 15 -37 20 -60 13 -54 -31 25 -140 197 -182
286 l-45 96 38 39 c21 21 41 39 44 39 4 0 12 -28 18 -62z m787 -89 c22 -11 52
-34 67 -50 l26 -31 44 26 c53 31 58 32 51 7 -4 -17 1 -18 65 -13 39 2 82 2 95
-2 29 -7 87 -53 87 -68 0 -6 -8 -4 -18 5 -34 31 -82 21 -159 -33 -74 -52 -106
-61 -121 -34 -8 14 -11 11 -20 -15 -12 -33 -30 -41 -37 -16 -17 54 -15 52 -26
33 -6 -10 -18 -18 -28 -18 -15 0 -36 12 -140 82 -50 34 -86 17 -106 -52 l-7
-25 21 23 c28 29 61 29 61 0 0 -12 7 -30 17 -40 9 -11 11 -18 5 -18 -7 0 -12
-5 -12 -11 0 -6 17 -8 48 -4 l47 6 -33 -15 c-18 -9 -46 -25 -62 -36 -29 -20
-38 -17 -53 20 -4 8 -6 -8 -4 -37 2 -45 0 -50 -15 -42 -33 18 -70 79 -75 123
-8 68 5 113 43 156 41 45 90 64 145 57 22 -3 39 -4 39 -2 0 2 -19 16 -42 30
l-43 27 50 -7 c28 -3 68 -15 90 -26z m-320 -40 c21 -39 19 -47 -5 -21 -40 42
-90 20 -90 -39 0 -22 1 -22 13 -4 14 18 37 14 37 -6 0 -6 -12 -20 -27 -33 -26
-22 -26 -24 -10 -41 20 -20 18 -39 -6 -43 -21 -4 -47 47 -47 95 0 105 95 170
135 92z m939 -4 c21 -32 34 -135 17 -135 -6 0 -11 14 -11 30 0 17 -4 30 -10
30 -5 0 -7 7 -4 15 4 8 -1 27 -11 41 -23 36 -62 29 -93 -16 l-24 -35 7 30 c21
87 85 107 129 40z m278 -207 c-17 -24 -39 -51 -49 -59 -16 -12 -17 -12 -7 1 6
8 21 41 34 73 20 51 25 57 38 44 13 -13 11 -20 -16 -59z m-1622 -88 c30 -41
70 -94 89 -118 l34 -43 -30 -31 -31 -31 -64 129 c-36 71 -68 138 -71 149 -4
11 -11 31 -17 45 l-11 25 24 -25 c13 -14 47 -59 77 -100z m1733 100 c-3 -11
-8 -20 -12 -20 -4 0 -7 -9 -8 -20 -2 -18 -117 -257 -132 -273 -4 -4 -19 6 -35
21 l-27 29 106 142 c59 77 108 141 110 141 2 0 1 -9 -2 -20z m-953 -25 c20
-10 44 -13 72 -10 37 5 40 5 23 -6 -26 -16 -35 -29 -35 -56 0 -21 38 -42 84
-44 17 -1 18 -2 3 -6 -15 -4 -10 -11 25 -43 24 -21 41 -40 38 -43 -3 -3 -23
-2 -45 3 -41 9 -113 -1 -124 -18 -3 -5 -27 -12 -54 -15 -26 -4 -74 -21 -107
-38 -32 -17 -64 -28 -70 -24 -15 9 -12 41 6 78 l17 32 -22 -19 c-21 -19 -21
-19 -21 10 0 30 27 95 52 127 13 18 15 18 51 -3 41 -24 59 -21 33 5 -22 23
-20 51 6 69 28 20 32 20 68 1z m890 -205 c0 -5 -4 -10 -10 -10 -5 0 -10 5 -10
10 0 6 5 10 10 10 6 0 10 -4 10 -10z m-1445 -156 l97 -116 -38 -39 c-47 -48
-45 -49 -145 102 l-72 110 28 29 c16 17 30 30 31 30 1 0 46 -52 99 -116z
m1345 56 c0 -9 -129 -202 -153 -228 l-21 -22 -30 27 -31 28 29 -32 29 -32 -28
-38 c-44 -59 -283 -295 -348 -343 l-58 -43 -52 52 c-44 44 -49 53 -36 61 48
28 228 182 327 279 65 65 117 109 124 105 7 -4 8 -3 4 4 -4 7 34 60 90 127
l98 115 28 -27 c15 -15 28 -29 28 -33z m930 50 c0 -5 -4 -10 -10 -10 -5 0 -10
5 -10 10 0 6 5 10 10 10 6 0 10 -4 10 -10z m-1620 -35 c16 -8 34 -25 40 -36
10 -19 10 -20 -9 -10 -28 15 -31 14 -31 -11 0 -31 -46 -128 -60 -128 -22 0
-51 22 -71 53 l-21 32 6 -32 c5 -30 4 -31 -23 -23 -68 19 -102 61 -81 99 28
54 186 89 250 56z m-440 -300 l104 -105 -47 -48 -48 -47 -62 65 c-34 36 -80
87 -101 113 l-39 48 38 39 c22 22 42 40 45 40 3 0 52 -47 110 -105z m199 -183
c47 -38 99 -77 114 -87 15 -10 26 -23 24 -30 -4 -8 9 -10 38 -9 38 3 46 -1 90
-46 l48 -49 -63 -40 c-35 -23 -66 -41 -70 -41 -3 0 -34 18 -69 41 l-63 41 29
31 28 32 -32 -29 -32 -28 -58 45 c-32 25 -83 68 -113 95 l-55 50 45 46 c24 25
46 46 48 46 2 0 43 -31 91 -68z m-1439 -232 c0 -5 -5 -10 -11 -10 -5 0 -7 5
-4 10 3 6 8 10 11 10 2 0 4 -4 4 -10z m1925 -420 c66 -1 92 -5 75 -10 -32 -10
-672 -13 -697 -2 -37 15 169 19 622 12z m-1585 -77 c-1 -19 -17 -31 -44 -35
-25 -2 -32 -10 -45 -48 -9 -25 -20 -51 -24 -58 -9 -14 -107 -17 -107 -3 0 5 7
28 15 51 20 56 19 60 -10 60 -27 0 -28 1 -19 24 5 13 25 16 120 16 63 0 114
-3 114 -7z m243 -13 c-5 -17 -14 -20 -59 -20 -30 0 -54 -4 -54 -10 0 -5 18
-10 40 -10 33 0 40 -3 40 -20 0 -17 -7 -20 -50 -20 -27 0 -50 -4 -50 -10 0 -5
20 -10 45 -10 38 0 45 -3 45 -20 0 -19 -7 -20 -94 -20 -120 0 -125 5 -94 94
l23 66 107 0 c101 0 106 -1 101 -20z m235 3 c-2 -14 -15 -19 -50 -21 -39 -3
-47 -7 -52 -27 -3 -13 -9 -30 -12 -39 -5 -13 2 -16 36 -16 34 0 41 -3 38 -17
-3 -15 -17 -18 -89 -21 -108 -3 -119 5 -94 75 27 74 43 83 142 83 75 0 84 -2
81 -17z m132 -9 c-15 -38 -13 -46 9 -35 10 6 22 22 25 36 6 23 11 25 56 25 28
0 50 -2 50 -4 0 -16 -54 -142 -63 -148 -7 -4 -29 -8 -50 -8 -38 0 -38 1 -32
30 5 23 3 30 -8 30 -9 0 -18 -13 -22 -30 -6 -29 -9 -30 -60 -30 l-54 0 25 68
c14 37 27 73 29 80 3 7 23 12 54 12 50 0 50 0 41 -26z m509 12 c15 -18 0 -59
-31 -80 -12 -9 -42 -16 -65 -16 -37 0 -45 -4 -53 -25 -8 -22 -15 -25 -59 -25
l-49 0 25 68 c13 37 26 73 28 80 6 18 189 17 204 -2z m270 0 c14 -16 6 -43
-22 -73 -17 -19 -18 -27 -9 -48 l12 -25 -54 0 c-50 0 -55 2 -64 28 l-10 27 -7
-27 c-7 -26 -11 -28 -62 -28 -40 0 -54 3 -51 13 3 6 15 42 27 80 l23 67 103 0
c75 0 106 -4 114 -14z m261 -1 c16 -19 -13 -109 -43 -130 -30 -21 -180 -21
-197 0 -16 19 13 109 43 130 30 21 180 21 197 0z m259 1 c18 -21 -22 -120 -55
-134 -14 -7 -65 -12 -114 -12 l-89 0 18 53 c42 118 28 107 135 107 67 0 97 -4
105 -14z m151 7 c0 -5 -9 -32 -20 -60 -19 -50 -19 -53 -2 -53 12 0 23 17 38
58 l20 57 52 3 52 3 -23 -62 c-30 -85 -54 -99 -169 -99 -102 0 -101 -2 -67 98
l21 62 49 0 c27 0 49 -3 49 -7z m373 -13 c-4 -16 -14 -20 -49 -20 -41 0 -45
-2 -59 -36 -8 -20 -15 -38 -15 -40 0 -2 18 -4 40 -4 34 0 40 -3 40 -20 0 -20
-5 -21 -86 -18 -105 4 -115 13 -94 80 24 71 37 78 139 78 84 0 89 -1 84 -20z
m260 0 c-4 -15 -14 -20 -38 -20 -30 0 -33 -3 -45 -46 -18 -62 -32 -74 -90 -74
l-49 0 20 57 c10 31 19 58 19 60 0 1 -11 3 -25 3 -24 0 -34 18 -18 33 3 4 57
7 119 7 107 0 112 -1 107 -20z m247 16 c0 -27 -16 -36 -65 -36 -30 0 -57 -4
-60 -10 -4 -6 15 -10 49 -10 31 0 56 -2 56 -4 0 -1 -5 -16 -10 -33 -17 -46
-56 -63 -150 -63 -72 0 -81 2 -78 18 2 13 15 18 61 20 70 4 76 22 7 22 -53 0
-56 3 -40 44 15 40 55 55 148 56 45 0 82 -2 82 -4z m-2850 -626 c0 -5 -4 -10
-10 -10 -5 0 -10 5 -10 10 0 6 5 10 10 10 6 0 10 -4 10 -10z"/>
<path d="M1736 2171 c-14 -16 -15 -20 -2 -30 8 -7 28 -16 45 -21 27 -7 31 -6
31 11 0 19 -33 59 -48 59 -5 0 -16 -8 -26 -19z"/>
<path d="M2150 1468 c41 -45 50 -53 50 -45 0 2 -21 23 -47 47 l-48 45 45 -47z"/>
<path d="M1546 655 c-3 -9 0 -15 9 -15 8 0 15 7 15 15 0 8 -4 15 -9 15 -5 0
-11 -7 -15 -15z"/>
<path d="M1817 663 c-4 -3 -7 -11 -7 -17 0 -6 5 -5 12 2 6 6 9 14 7 17 -3 3
-9 2 -12 -2z"/>
<path d="M2069 643 c-5 -16 -12 -34 -14 -40 -2 -7 2 -13 9 -13 13 0 36 41 36
65 0 25 -20 17 -31 -12z"/>
<path d="M2340 666 c0 -2 -7 -20 -15 -40 -13 -29 -13 -36 -2 -36 14 0 37 40
37 65 0 8 -4 15 -10 15 -5 0 -10 -2 -10 -4z"/>
</g>
</svg>
